<svg xmlns="http://www.w3.org/2000/svg" xmlns:xlink="http://www.w3.org/1999/xlink" width="500" zoomAndPan="magnify" viewBox="0 0 375 374.999991" height="500" preserveAspectRatio="xMidYMid meet" version="1.0"><defs><g/><clipPath id="8350130c28"><path d="M 114.035156 85.28125 L 261 85.28125 L 261 232.28125 L 114.035156 232.28125 Z M 114.035156 85.28125 " clip-rule="nonzero"/></clipPath><clipPath id="7e150c876a"><rect x="0" width="195" y="0" height="47"/></clipPath></defs><g clip-path="url(#8350130c28)"><path fill="#f19a06" d="M 187.484375 87.925781 C 226.59375 87.925781 258.296875 119.628906 258.296875 158.734375 C 258.296875 197.839844 226.59375 229.542969 187.484375 229.542969 C 148.378906 229.542969 116.675781 197.839844 116.675781 158.734375 C 116.675781 119.628906 148.378906 87.925781 187.484375 87.925781 Z M 187.484375 85.277344 C 146.917969 85.277344 114.03125 118.164062 114.03125 158.734375 C 114.03125 199.304688 146.917969 232.191406 187.484375 232.191406 C 228.054688 232.191406 260.941406 199.304688 260.941406 158.734375 C 260.941406 118.164062 228.054688 85.277344 187.484375 85.277344 Z M 222.695312 126.054688 L 222.695312 156.773438 L 214.035156 151.183594 L 197.664062 161.347656 L 194.910156 163.0625 L 193.296875 164.058594 L 193.296875 116.953125 L 174.691406 128.484375 L 174.691406 148.75 L 170.324219 145.796875 L 170.324219 126.054688 L 197.664062 109.113281 Z M 126.351562 158.734375 C 126.351562 124.96875 153.722656 97.597656 187.488281 97.597656 C 221.253906 97.597656 248.621094 124.96875 248.621094 158.734375 C 248.621094 174.335938 242.769531 188.566406 233.152344 199.367188 L 233.152344 166.808594 L 214.105469 153.917969 L 193.296875 166.808594 L 193.296875 219.589844 C 191.382812 219.769531 189.449219 219.871094 187.488281 219.871094 C 185.527344 219.871094 183.589844 219.769531 181.675781 219.589844 L 181.675781 156.4375 L 162.625 143.542969 L 141.824219 156.4375 L 141.824219 199.367188 C 132.203125 188.566406 126.351562 174.335938 126.351562 158.734375 Z M 145.144531 158.285156 L 159.304688 149.511719 L 159.304688 212.984375 C 154.101562 210.273438 149.335938 206.839844 145.144531 202.8125 Z M 196.621094 168.660156 L 210.78125 159.886719 L 210.78125 215.265625 C 206.300781 217.109375 201.558594 218.449219 196.621094 219.1875 Z M 120.222656 158.734375 C 120.222656 195.882812 150.335938 226 187.488281 226 C 224.636719 226 254.75 195.882812 254.75 158.734375 C 254.75 121.585938 224.636719 91.46875 187.488281 91.46875 C 150.335938 91.46875 120.222656 121.585938 120.222656 158.734375 " fill-opacity="1" fill-rule="nonzero"/></g><g transform="matrix(1, 0, 0, 1, 90, 236)"><g clip-path="url(#7e150c876a)"><g fill="#000000" fill-opacity="1"><g transform="translate(1.064523, 36.325235)"><g><path d="M 3.1875 -26.859375 L 9.40625 -26.859375 L 9.40625 0 L 3.1875 0 Z M 3.1875 -26.859375 "/></g></g></g><g fill="#000000" fill-opacity="1"><g transform="translate(13.649577, 36.325235)"><g><path d="M 27.625 0 L 27.59375 -16.125 L 19.6875 -2.84375 L 16.890625 -2.84375 L 9.015625 -15.765625 L 9.015625 0 L 3.1875 0 L 3.1875 -26.859375 L 8.328125 -26.859375 L 18.375 -10.171875 L 28.28125 -26.859375 L 33.390625 -26.859375 L 33.46875 0 Z M 27.625 0 "/></g></g></g><g fill="#000000" fill-opacity="1"><g transform="translate(50.29201, 36.325235)"><g><path d="M 27.625 0 L 27.59375 -16.125 L 19.6875 -2.84375 L 16.890625 -2.84375 L 9.015625 -15.765625 L 9.015625 0 L 3.1875 0 L 3.1875 -26.859375 L 8.328125 -26.859375 L 18.375 -10.171875 L 28.28125 -26.859375 L 33.390625 -26.859375 L 33.46875 0 Z M 27.625 0 "/></g></g></g><g fill="#000000" fill-opacity="1"><g transform="translate(86.934443, 36.325235)"><g><path d="M 16.1875 0.453125 C 13.40625 0.453125 10.894531 -0.144531 8.65625 -1.34375 C 6.414062 -2.539062 4.660156 -4.195312 3.390625 -6.3125 C 2.128906 -8.425781 1.5 -10.800781 1.5 -13.4375 C 1.5 -16.070312 2.128906 -18.441406 3.390625 -20.546875 C 4.660156 -22.660156 6.414062 -24.316406 8.65625 -25.515625 C 10.894531 -26.722656 13.40625 -27.328125 16.1875 -27.328125 C 18.976562 -27.328125 21.484375 -26.722656 23.703125 -25.515625 C 25.929688 -24.316406 27.6875 -22.660156 28.96875 -20.546875 C 30.25 -18.441406 30.890625 -16.070312 30.890625 -13.4375 C 30.890625 -10.800781 30.25 -8.425781 28.96875 -6.3125 C 27.6875 -4.195312 25.929688 -2.539062 23.703125 -1.34375 C 21.484375 -0.144531 18.976562 0.453125 16.1875 0.453125 Z M 16.1875 -4.828125 C 17.78125 -4.828125 19.210938 -5.191406 20.484375 -5.921875 C 21.765625 -6.648438 22.769531 -7.664062 23.5 -8.96875 C 24.226562 -10.28125 24.59375 -11.769531 24.59375 -13.4375 C 24.59375 -15.09375 24.226562 -16.570312 23.5 -17.875 C 22.769531 -19.1875 21.765625 -20.207031 20.484375 -20.9375 C 19.210938 -21.664062 17.78125 -22.03125 16.1875 -22.03125 C 14.601562 -22.03125 13.171875 -21.664062 11.890625 -20.9375 C 10.617188 -20.207031 9.617188 -19.1875 8.890625 -17.875 C 8.160156 -16.570312 7.796875 -15.09375 7.796875 -13.4375 C 7.796875 -11.769531 8.160156 -10.28125 8.890625 -8.96875 C 9.617188 -7.664062 10.617188 -6.648438 11.890625 -5.921875 C 13.171875 -5.191406 14.601562 -4.828125 16.1875 -4.828125 Z M 16.1875 -4.828125 "/></g></g></g><g fill="#000000" fill-opacity="1"><g transform="translate(119.317909, 36.325235)"><g/></g></g><g fill="#000000" fill-opacity="1"><g transform="translate(130.176347, 36.325235)"><g><path d="M 11.859375 -26.859375 L 11.859375 0 L 5.640625 0 L 5.640625 -21.875 L 0.265625 -21.875 L 0.265625 -26.859375 Z M 11.859375 -26.859375 "/></g></g></g><g fill="#000000" fill-opacity="1"><g transform="translate(145.217019, 36.325235)"><g><path d="M 21.5625 -5.0625 L 21.5625 0 L 1.265625 0 L 1.265625 -4.03125 L 11.625 -13.8125 C 12.726562 -14.863281 13.46875 -15.765625 13.84375 -16.515625 C 14.226562 -17.273438 14.421875 -18.023438 14.421875 -18.765625 C 14.421875 -19.835938 14.054688 -20.660156 13.328125 -21.234375 C 12.597656 -21.816406 11.53125 -22.109375 10.125 -22.109375 C 8.945312 -22.109375 7.882812 -21.882812 6.9375 -21.4375 C 6 -20.988281 5.207031 -20.316406 4.5625 -19.421875 L 0.03125 -22.328125 C 1.082031 -23.890625 2.53125 -25.113281 4.375 -26 C 6.21875 -26.882812 8.328125 -27.328125 10.703125 -27.328125 C 12.703125 -27.328125 14.445312 -27 15.9375 -26.34375 C 17.4375 -25.6875 18.601562 -24.765625 19.4375 -23.578125 C 20.269531 -22.390625 20.6875 -20.988281 20.6875 -19.375 C 20.6875 -17.914062 20.378906 -16.546875 19.765625 -15.265625 C 19.148438 -13.992188 17.957031 -12.539062 16.1875 -10.90625 L 10.015625 -5.0625 Z M 21.5625 -5.0625 "/></g></g></g><g fill="#000000" fill-opacity="1"><g transform="translate(167.85476, 36.325235)"><g><path d="M 13.015625 0.453125 C 10.785156 0.453125 8.800781 -0.09375 7.0625 -1.1875 C 5.320312 -2.289062 3.957031 -3.882812 2.96875 -5.96875 C 1.988281 -8.050781 1.5 -10.539062 1.5 -13.4375 C 1.5 -16.320312 1.988281 -18.804688 2.96875 -20.890625 C 3.957031 -22.972656 5.320312 -24.566406 7.0625 -25.671875 C 8.800781 -26.773438 10.785156 -27.328125 13.015625 -27.328125 C 15.234375 -27.328125 17.210938 -26.773438 18.953125 -25.671875 C 20.691406 -24.566406 22.050781 -22.972656 23.03125 -20.890625 C 24.019531 -18.804688 24.515625 -16.320312 24.515625 -13.4375 C 24.515625 -10.539062 24.019531 -8.050781 23.03125 -5.96875 C 22.050781 -3.882812 20.691406 -2.289062 18.953125 -1.1875 C 17.210938 -0.09375 15.234375 0.453125 13.015625 0.453125 Z M 13.015625 -4.796875 C 14.648438 -4.796875 15.929688 -5.5 16.859375 -6.90625 C 17.796875 -8.3125 18.265625 -10.488281 18.265625 -13.4375 C 18.265625 -16.375 17.796875 -18.546875 16.859375 -19.953125 C 15.929688 -21.359375 14.648438 -22.0625 13.015625 -22.0625 C 11.398438 -22.0625 10.125 -21.359375 9.1875 -19.953125 C 8.257812 -18.546875 7.796875 -16.375 7.796875 -13.4375 C 7.796875 -10.488281 8.257812 -8.3125 9.1875 -6.90625 C 10.125 -5.5 11.398438 -4.796875 13.015625 -4.796875 Z M 13.015625 -4.796875 "/></g></g></g></g></g><g fill="#f19a06" fill-opacity="1"><g transform="translate(107.496092, 298.352704)"><g><path d="M 3.8125 0 L 2.8125 0 L 2.8125 -7.6875 L 0.109375 -7.6875 L 0.109375 -8.5625 L 6.53125 -8.5625 L 6.53125 -7.6875 L 3.8125 -7.6875 Z M 3.8125 0 "/></g></g><g transform="translate(114.134764, 298.352704)"><g><path d="M 8.609375 -4.296875 C 8.609375 -2.921875 8.257812 -1.835938 7.5625 -1.046875 C 6.875 -0.265625 5.914062 0.125 4.6875 0.125 C 3.425781 0.125 2.453125 -0.257812 1.765625 -1.03125 C 1.078125 -1.8125 0.734375 -2.90625 0.734375 -4.3125 C 0.734375 -5.707031 1.078125 -6.785156 1.765625 -7.546875 C 2.453125 -8.316406 3.425781 -8.703125 4.6875 -8.703125 C 5.925781 -8.703125 6.890625 -8.3125 7.578125 -7.53125 C 8.265625 -6.75 8.609375 -5.671875 8.609375 -4.296875 Z M 1.78125 -4.296875 C 1.78125 -3.140625 2.023438 -2.257812 2.515625 -1.65625 C 3.015625 -1.050781 3.738281 -0.75 4.6875 -0.75 C 5.632812 -0.75 6.347656 -1.046875 6.828125 -1.640625 C 7.316406 -2.242188 7.5625 -3.128906 7.5625 -4.296875 C 7.5625 -5.453125 7.316406 -6.328125 6.828125 -6.921875 C 6.347656 -7.515625 5.632812 -7.8125 4.6875 -7.8125 C 3.738281 -7.8125 3.015625 -7.507812 2.515625 -6.90625 C 2.023438 -6.3125 1.78125 -5.441406 1.78125 -4.296875 Z M 1.78125 -4.296875 "/></g></g><g transform="translate(123.480466, 298.352704)"><g><path d="M 7.875 0 L 6.734375 0 L 2.046875 -7.1875 L 2 -7.1875 C 2.0625 -6.34375 2.09375 -5.570312 2.09375 -4.875 L 2.09375 0 L 1.171875 0 L 1.171875 -8.5625 L 2.296875 -8.5625 L 6.96875 -1.40625 L 7.015625 -1.40625 C 7.015625 -1.507812 7 -1.847656 6.96875 -2.421875 C 6.9375 -2.992188 6.925781 -3.40625 6.9375 -3.65625 L 6.9375 -8.5625 L 7.875 -8.5625 Z M 7.875 0 "/></g></g><g transform="translate(132.527341, 298.352704)"><g/></g><g transform="translate(135.644528, 298.352704)"><g><path d="M 4.1875 0 L 3.234375 0 L 3.234375 -6.109375 C 3.234375 -6.617188 3.25 -7.097656 3.28125 -7.546875 C 3.207031 -7.460938 3.117188 -7.375 3.015625 -7.28125 C 2.910156 -7.195312 2.445312 -6.816406 1.625 -6.140625 L 1.109375 -6.8125 L 3.375 -8.5625 L 4.1875 -8.5625 Z M 4.1875 0 "/></g></g><g transform="translate(142.505856, 298.352704)"><g><path d="M 5.953125 0 L 1.171875 0 L 1.171875 -8.5625 L 5.953125 -8.5625 L 5.953125 -7.6875 L 2.171875 -7.6875 L 2.171875 -4.921875 L 5.71875 -4.921875 L 5.71875 -4.046875 L 2.171875 -4.046875 L 2.171875 -0.890625 L 5.953125 -0.890625 Z M 5.953125 0 "/></g></g><g transform="translate(149.179683, 298.352704)"><g><path d="M 2.171875 -3.5625 L 2.171875 0 L 1.171875 0 L 1.171875 -8.5625 L 3.53125 -8.5625 C 4.582031 -8.5625 5.359375 -8.359375 5.859375 -7.953125 C 6.359375 -7.554688 6.609375 -6.953125 6.609375 -6.140625 C 6.609375 -5.015625 6.035156 -4.25 4.890625 -3.84375 L 7.21875 0 L 6.03125 0 L 3.96875 -3.5625 Z M 2.171875 -4.421875 L 3.546875 -4.421875 C 4.242188 -4.421875 4.753906 -4.554688 5.078125 -4.828125 C 5.410156 -5.109375 5.578125 -5.53125 5.578125 -6.09375 C 5.578125 -6.65625 5.410156 -7.0625 5.078125 -7.3125 C 4.742188 -7.5625 4.207031 -7.6875 3.46875 -7.6875 L 2.171875 -7.6875 Z M 2.171875 -4.421875 "/></g></g><g transform="translate(156.597652, 298.352704)"><g/></g><g transform="translate(159.714839, 298.352704)"><g><path d="M 1.171875 -8.5625 L 3.59375 -8.5625 C 4.726562 -8.5625 5.550781 -8.390625 6.0625 -8.046875 C 6.570312 -7.710938 6.828125 -7.179688 6.828125 -6.453125 C 6.828125 -5.941406 6.6875 -5.519531 6.40625 -5.1875 C 6.125 -4.851562 5.707031 -4.640625 5.15625 -4.546875 L 5.15625 -4.484375 C 6.457031 -4.265625 7.109375 -3.582031 7.109375 -2.4375 C 7.109375 -1.675781 6.847656 -1.078125 6.328125 -0.640625 C 5.816406 -0.210938 5.097656 0 4.171875 0 L 1.171875 0 Z M 2.171875 -4.90625 L 3.8125 -4.90625 C 4.519531 -4.90625 5.023438 -5.015625 5.328125 -5.234375 C 5.640625 -5.453125 5.796875 -5.820312 5.796875 -6.34375 C 5.796875 -6.820312 5.625 -7.164062 5.28125 -7.375 C 4.9375 -7.59375 4.390625 -7.703125 3.640625 -7.703125 L 2.171875 -7.703125 Z M 2.171875 -4.0625 L 2.171875 -0.84375 L 3.96875 -0.84375 C 4.65625 -0.84375 5.171875 -0.976562 5.515625 -1.25 C 5.867188 -1.519531 6.046875 -1.941406 6.046875 -2.515625 C 6.046875 -3.046875 5.863281 -3.4375 5.5 -3.6875 C 5.144531 -3.9375 4.601562 -4.0625 3.875 -4.0625 Z M 2.171875 -4.0625 "/></g></g><g transform="translate(167.490229, 298.352704)"><g><path d="M 1.171875 0 L 1.171875 -8.5625 L 2.171875 -8.5625 L 2.171875 0 Z M 1.171875 0 "/></g></g><g transform="translate(170.835932, 298.352704)"><g><path d="M 5.953125 0 L 1.171875 0 L 1.171875 -8.5625 L 5.953125 -8.5625 L 5.953125 -7.6875 L 2.171875 -7.6875 L 2.171875 -4.921875 L 5.71875 -4.921875 L 5.71875 -4.046875 L 2.171875 -4.046875 L 2.171875 -0.890625 L 5.953125 -0.890625 Z M 5.953125 0 "/></g></g><g transform="translate(177.50976, 298.352704)"><g><path d="M 7.875 0 L 6.734375 0 L 2.046875 -7.1875 L 2 -7.1875 C 2.0625 -6.34375 2.09375 -5.570312 2.09375 -4.875 L 2.09375 0 L 1.171875 0 L 1.171875 -8.5625 L 2.296875 -8.5625 L 6.96875 -1.40625 L 7.015625 -1.40625 C 7.015625 -1.507812 7 -1.847656 6.96875 -2.421875 C 6.9375 -2.992188 6.925781 -3.40625 6.9375 -3.65625 L 6.9375 -8.5625 L 7.875 -8.5625 Z M 7.875 0 "/></g></g><g transform="translate(186.556634, 298.352704)"><g/></g><g transform="translate(189.673821, 298.352704)"><g><path d="M 5.953125 0 L 1.171875 0 L 1.171875 -8.5625 L 5.953125 -8.5625 L 5.953125 -7.6875 L 2.171875 -7.6875 L 2.171875 -4.921875 L 5.71875 -4.921875 L 5.71875 -4.046875 L 2.171875 -4.046875 L 2.171875 -0.890625 L 5.953125 -0.890625 Z M 5.953125 0 "/></g></g><g transform="translate(196.347649, 298.352704)"><g><path d="M 7.875 0 L 6.734375 0 L 2.046875 -7.1875 L 2 -7.1875 C 2.0625 -6.34375 2.09375 -5.570312 2.09375 -4.875 L 2.09375 0 L 1.171875 0 L 1.171875 -8.5625 L 2.296875 -8.5625 L 6.96875 -1.40625 L 7.015625 -1.40625 C 7.015625 -1.507812 7 -1.847656 6.96875 -2.421875 C 6.9375 -2.992188 6.925781 -3.40625 6.9375 -3.65625 L 6.9375 -8.5625 L 7.875 -8.5625 Z M 7.875 0 "/></g></g><g transform="translate(205.394523, 298.352704)"><g/></g><g transform="translate(208.511711, 298.352704)"><g><path d="M 4.1875 0 L 3.234375 0 L 3.234375 -6.109375 C 3.234375 -6.617188 3.25 -7.097656 3.28125 -7.546875 C 3.207031 -7.460938 3.117188 -7.375 3.015625 -7.28125 C 2.910156 -7.195312 2.445312 -6.816406 1.625 -6.140625 L 1.109375 -6.8125 L 3.375 -8.5625 L 4.1875 -8.5625 Z M 4.1875 0 "/></g></g><g transform="translate(215.373038, 298.352704)"><g><path d="M 6.21875 0 L 0.59375 0 L 0.59375 -0.84375 L 2.84375 -3.109375 C 3.53125 -3.804688 3.984375 -4.300781 4.203125 -4.59375 C 4.421875 -4.894531 4.582031 -5.1875 4.6875 -5.46875 C 4.800781 -5.75 4.859375 -6.050781 4.859375 -6.375 C 4.859375 -6.832031 4.71875 -7.191406 4.4375 -7.453125 C 4.164062 -7.722656 3.78125 -7.859375 3.28125 -7.859375 C 2.925781 -7.859375 2.585938 -7.796875 2.265625 -7.671875 C 1.953125 -7.554688 1.601562 -7.347656 1.21875 -7.046875 L 0.703125 -7.703125 C 1.484375 -8.359375 2.34375 -8.6875 3.28125 -8.6875 C 4.082031 -8.6875 4.710938 -8.476562 5.171875 -8.0625 C 5.628906 -7.65625 5.859375 -7.101562 5.859375 -6.40625 C 5.859375 -5.863281 5.703125 -5.328125 5.390625 -4.796875 C 5.085938 -4.265625 4.519531 -3.59375 3.6875 -2.78125 L 1.8125 -0.953125 L 1.8125 -0.90625 L 6.21875 -0.90625 Z M 6.21875 0 "/></g></g><g transform="translate(222.234366, 298.352704)"><g><path d="M 6.265625 -4.296875 C 6.265625 -2.816406 6.03125 -1.707031 5.5625 -0.96875 C 5.09375 -0.238281 4.378906 0.125 3.421875 0.125 C 2.503906 0.125 1.800781 -0.25 1.3125 -1 C 0.832031 -1.75 0.59375 -2.847656 0.59375 -4.296875 C 0.59375 -5.785156 0.828125 -6.890625 1.296875 -7.609375 C 1.765625 -8.335938 2.472656 -8.703125 3.421875 -8.703125 C 4.347656 -8.703125 5.050781 -8.320312 5.53125 -7.5625 C 6.019531 -6.8125 6.265625 -5.722656 6.265625 -4.296875 Z M 1.578125 -4.296875 C 1.578125 -3.046875 1.722656 -2.132812 2.015625 -1.5625 C 2.316406 -1 2.785156 -0.71875 3.421875 -0.71875 C 4.066406 -0.71875 4.535156 -1.003906 4.828125 -1.578125 C 5.117188 -2.160156 5.265625 -3.066406 5.265625 -4.296875 C 5.265625 -5.523438 5.117188 -6.425781 4.828125 -7 C 4.535156 -7.570312 4.066406 -7.859375 3.421875 -7.859375 C 2.785156 -7.859375 2.316406 -7.578125 2.015625 -7.015625 C 1.722656 -6.453125 1.578125 -5.546875 1.578125 -4.296875 Z M 1.578125 -4.296875 "/></g></g><g transform="translate(229.095694, 298.352704)"><g/></g><g transform="translate(232.212881, 298.352704)"><g><path d="M -0.078125 2.25 C -0.441406 2.25 -0.726562 2.195312 -0.9375 2.09375 L -0.9375 1.25 C -0.65625 1.320312 -0.367188 1.359375 -0.078125 1.359375 C 0.316406 1.359375 0.613281 1.238281 0.8125 1 C 1.007812 0.769531 1.109375 0.4375 1.109375 0 L 1.109375 -8.5625 L 2.109375 -8.5625 L 2.109375 -0.078125 C 2.109375 0.660156 1.921875 1.234375 1.546875 1.640625 C 1.171875 2.046875 0.628906 2.25 -0.078125 2.25 Z M -0.078125 2.25 "/></g></g><g transform="translate(235.417959, 298.352704)"><g><path d="M 8.609375 -4.296875 C 8.609375 -2.921875 8.257812 -1.835938 7.5625 -1.046875 C 6.875 -0.265625 5.914062 0.125 4.6875 0.125 C 3.425781 0.125 2.453125 -0.257812 1.765625 -1.03125 C 1.078125 -1.8125 0.734375 -2.90625 0.734375 -4.3125 C 0.734375 -5.707031 1.078125 -6.785156 1.765625 -7.546875 C 2.453125 -8.316406 3.425781 -8.703125 4.6875 -8.703125 C 5.925781 -8.703125 6.890625 -8.3125 7.578125 -7.53125 C 8.265625 -6.75 8.609375 -5.671875 8.609375 -4.296875 Z M 1.78125 -4.296875 C 1.78125 -3.140625 2.023438 -2.257812 2.515625 -1.65625 C 3.015625 -1.050781 3.738281 -0.75 4.6875 -0.75 C 5.632812 -0.75 6.347656 -1.046875 6.828125 -1.640625 C 7.316406 -2.242188 7.5625 -3.128906 7.5625 -4.296875 C 7.5625 -5.453125 7.316406 -6.328125 6.828125 -6.921875 C 6.347656 -7.515625 5.632812 -7.8125 4.6875 -7.8125 C 3.738281 -7.8125 3.015625 -7.507812 2.515625 -6.90625 C 2.023438 -6.3125 1.78125 -5.441406 1.78125 -4.296875 Z M 1.78125 -4.296875 "/></g></g><g transform="translate(244.763661, 298.352704)"><g><path d="M 7.640625 -8.5625 L 7.640625 -3.03125 C 7.640625 -2.050781 7.34375 -1.28125 6.75 -0.71875 C 6.164062 -0.15625 5.359375 0.125 4.328125 0.125 C 3.296875 0.125 2.5 -0.15625 1.9375 -0.71875 C 1.375 -1.289062 1.09375 -2.066406 1.09375 -3.046875 L 1.09375 -8.5625 L 2.09375 -8.5625 L 2.09375 -2.984375 C 2.09375 -2.265625 2.285156 -1.710938 2.671875 -1.328125 C 3.066406 -0.941406 3.640625 -0.75 4.390625 -0.75 C 5.117188 -0.75 5.675781 -0.941406 6.0625 -1.328125 C 6.457031 -1.710938 6.65625 -2.265625 6.65625 -2.984375 L 6.65625 -8.5625 Z M 7.640625 -8.5625 "/></g></g><g transform="translate(253.499989, 298.352704)"><g><path d="M 2.171875 -3.5625 L 2.171875 0 L 1.171875 0 L 1.171875 -8.5625 L 3.53125 -8.5625 C 4.582031 -8.5625 5.359375 -8.359375 5.859375 -7.953125 C 6.359375 -7.554688 6.609375 -6.953125 6.609375 -6.140625 C 6.609375 -5.015625 6.035156 -4.25 4.890625 -3.84375 L 7.21875 0 L 6.03125 0 L 3.96875 -3.5625 Z M 2.171875 -4.421875 L 3.546875 -4.421875 C 4.242188 -4.421875 4.753906 -4.554688 5.078125 -4.828125 C 5.410156 -5.109375 5.578125 -5.53125 5.578125 -6.09375 C 5.578125 -6.65625 5.410156 -7.0625 5.078125 -7.3125 C 4.742188 -7.5625 4.207031 -7.6875 3.46875 -7.6875 L 2.171875 -7.6875 Z M 2.171875 -4.421875 "/></g></g><g transform="translate(260.917957, 298.352704)"><g><path d="M 6.015625 -2.28125 C 6.015625 -1.53125 5.738281 -0.941406 5.1875 -0.515625 C 4.644531 -0.0859375 3.90625 0.125 2.96875 0.125 C 1.945312 0.125 1.164062 -0.0078125 0.625 -0.28125 L 0.625 -1.234375 C 0.976562 -1.085938 1.359375 -0.96875 1.765625 -0.875 C 2.179688 -0.789062 2.59375 -0.75 3 -0.75 C 3.664062 -0.75 4.164062 -0.875 4.5 -1.125 C 4.832031 -1.382812 5 -1.738281 5 -2.1875 C 5 -2.476562 4.9375 -2.71875 4.8125 -2.90625 C 4.695312 -3.101562 4.5 -3.28125 4.21875 -3.4375 C 3.945312 -3.601562 3.523438 -3.785156 2.953125 -3.984375 C 2.160156 -4.265625 1.59375 -4.597656 1.25 -4.984375 C 0.90625 -5.378906 0.734375 -5.894531 0.734375 -6.53125 C 0.734375 -7.1875 0.976562 -7.707031 1.46875 -8.09375 C 1.96875 -8.488281 2.628906 -8.6875 3.453125 -8.6875 C 4.296875 -8.6875 5.078125 -8.53125 5.796875 -8.21875 L 5.484375 -7.359375 C 4.773438 -7.648438 4.085938 -7.796875 3.421875 -7.796875 C 2.890625 -7.796875 2.472656 -7.679688 2.171875 -7.453125 C 1.878906 -7.234375 1.734375 -6.921875 1.734375 -6.515625 C 1.734375 -6.222656 1.785156 -5.976562 1.890625 -5.78125 C 2.003906 -5.59375 2.191406 -5.421875 2.453125 -5.265625 C 2.710938 -5.109375 3.113281 -4.929688 3.65625 -4.734375 C 4.550781 -4.421875 5.164062 -4.078125 5.5 -3.703125 C 5.84375 -3.335938 6.015625 -2.863281 6.015625 -2.28125 Z M 6.015625 -2.28125 "/></g></g></g></svg>